<svg width="335" height="335" viewBox="0 0 335 335" fill="none" xmlns="http://www.w3.org/2000/svg">
<circle cx="167.5" cy="167.5" r="167.5" fill="black"/>
<g clip-path="url(#clip0_1_47)">
<path d="M260 182.03V79.9749L167.5 29L75 79.9749V182.03L167.5 233.11L260 182.03Z" fill="#7758A5"/>
<path d="M75 79.9749L132.744 140.619L75 182.03V79.9749Z" fill="#7758A5"/>
<path d="M132.744 140.619L167.5 29L240.312 100.89L132.744 140.619Z" fill="#6F5199"/>
<path d="M132.744 140.619L167.5 233.11L75 182.03L132.744 140.619Z" fill="#503770"/>
<path d="M75 79.9749L167.5 29L132.744 140.619L75 79.9749Z" fill="#806595"/>
<path d="M167.5 29L240.312 100.89L260 79.9749L167.5 29Z" fill="#503770"/>
<path d="M240.312 100.89L260 79.9749V182.03L240.312 100.89Z" fill="#45305A"/>
<path d="M240.312 100.89L210.065 165.949L260 182.03L240.312 100.89Z" fill="#6F5199"/>
<path d="M132.744 140.409L240.312 100.89L210.945 165.949L132.744 140.409Z" fill="#45305A"/>
<path d="M132.744 140.619L167.5 233.11L210.065 165.949L132.744 140.619Z" fill="#5C4180"/>
<path d="M167.5 233.11L210.065 165.949L260 182.03L167.5 233.11Z" fill="#806595"/>
<path d="M81.0494 249.296H79.9495C79.8395 249.296 79.7295 249.295 79.7295 249.19C79.6195 249.085 79.6195 249.085 79.6195 248.98C79.6195 248.875 79.6195 248.77 79.7295 248.77C79.8395 248.665 79.8395 248.665 79.9495 248.665H85.6689V278.514H86.7687C86.8787 278.514 86.9887 278.514 86.9887 278.619C87.0987 278.724 87.0987 278.829 87.0987 278.934C87.0987 279.04 87.0987 279.145 86.9887 279.145C86.8787 279.25 86.8787 279.25 86.7687 279.25H79.9495C79.7295 279.145 79.7295 279.04 79.7295 278.934C79.7295 278.829 79.8395 278.724 79.9495 278.619H80.9394V249.296H81.0494ZM80.6094 238.89C80.6094 238.049 80.8294 237.419 81.3793 236.788C81.9293 236.158 82.5892 235.947 83.3591 235.947C84.129 235.947 84.7889 236.263 85.3389 236.788C85.8888 237.419 86.1088 238.049 86.1088 238.89C86.1088 239.731 85.8888 240.467 85.3389 240.992C84.7889 241.623 84.129 241.833 83.3591 241.833C82.5892 241.833 81.9293 241.518 81.3793 240.992C80.9394 240.467 80.6094 239.731 80.6094 238.89Z" fill="white"/>
<path d="M110.636 278.514L111.296 278.619C111.406 278.724 111.406 278.724 111.406 278.934C111.406 279.04 111.296 279.145 111.186 279.25H104.917C104.697 279.145 104.697 279.04 104.697 278.934C104.697 278.829 104.807 278.724 104.917 278.619H105.907V249.401H104.917C104.697 249.295 104.697 249.19 104.697 249.085C104.697 248.98 104.807 248.875 104.917 248.665H110.636V250.977C111.296 249.926 111.846 249.295 112.396 248.875C112.946 248.56 113.606 248.35 114.486 248.35C115.476 248.35 116.136 248.56 116.685 248.98C117.235 249.401 117.565 250.241 118.005 251.398C118.555 250.241 119.105 249.401 119.655 248.98C120.205 248.56 120.865 248.35 121.855 248.35C123.065 248.35 124.055 248.665 124.605 249.296C125.155 249.926 125.485 250.872 125.485 252.028V278.619H126.364C126.474 278.619 126.584 278.619 126.584 278.724C126.694 278.829 126.694 278.829 126.694 278.934L126.584 279.145C126.474 279.25 126.364 279.25 126.254 279.25H120.095C119.875 279.145 119.875 279.04 119.875 278.934C119.875 278.829 119.985 278.724 120.095 278.619H120.645V250.977C120.645 250.662 120.535 250.347 120.425 250.241C120.315 250.031 120.095 249.926 119.985 249.926C119.655 249.926 119.215 250.241 118.885 250.872C118.335 251.923 118.005 253.289 118.005 255.076V278.619H118.555L118.665 278.724C118.665 278.829 118.775 278.934 118.775 279.04C118.775 279.145 118.665 279.25 118.555 279.355H112.616C112.506 279.25 112.396 279.145 112.396 279.04C112.396 278.934 112.506 278.829 112.616 278.724H113.276V251.503C113.276 250.977 113.166 250.662 113.056 250.452C112.946 250.241 112.726 250.136 112.506 250.136C112.176 250.136 111.846 250.347 111.516 250.872C110.966 251.818 110.636 252.974 110.636 254.13V278.514Z" fill="white"/>
<path d="M146.052 251.608C146.272 251.503 146.492 251.398 146.712 251.398C146.932 251.398 147.152 251.292 147.372 251.292C148.032 251.292 148.692 251.608 149.132 252.133C149.572 252.659 149.902 253.395 149.902 254.34C149.902 255.286 149.682 256.022 149.132 256.548C148.692 257.073 148.032 257.388 147.152 257.388C146.272 257.388 145.722 257.073 145.172 256.548C144.732 256.022 144.512 255.181 144.512 254.025C144.512 252.343 145.062 250.977 146.272 249.926C147.372 248.875 149.022 248.244 151.112 248.244C152.982 248.244 154.411 248.665 155.181 249.401C156.061 250.136 156.391 251.187 156.391 252.343V277.043C156.391 277.358 156.501 277.568 156.611 277.778C156.721 277.989 156.941 278.094 157.051 278.094C157.491 278.094 157.931 277.568 158.371 276.622C158.481 276.307 158.591 276.202 158.701 276.202L159.031 276.517C159.031 277.148 158.591 277.883 157.821 278.619C157.051 279.355 156.061 279.775 154.961 279.775C153.971 279.775 153.312 279.565 152.762 279.04C152.212 278.514 151.882 277.778 151.552 276.517C150.782 277.778 150.012 278.619 149.462 279.145C148.802 279.565 148.142 279.775 147.262 279.775C146.272 279.775 145.502 279.46 144.952 278.934C144.402 278.409 144.182 277.673 144.182 276.727V266.007C144.182 264.851 144.402 264.01 144.842 263.484C145.282 262.959 146.712 262.223 149.022 261.382C150.012 260.962 150.892 260.647 151.552 260.226V252.028C151.552 251.187 151.332 250.557 150.892 250.031C150.452 249.506 149.902 249.296 149.242 249.296C148.032 248.98 146.822 249.926 146.052 251.608ZM151.772 260.857C150.672 261.382 149.902 261.803 149.572 262.328C149.242 262.854 149.132 263.589 149.132 264.641V276.727C149.132 277.148 149.242 277.463 149.352 277.568C149.462 277.778 149.682 277.883 149.792 277.883C150.122 277.883 150.342 277.568 150.782 276.938C151.442 275.781 151.772 274.31 151.772 272.628V260.857Z" fill="white"/>
<path d="M180.479 272.839C179.379 271.788 178.609 270.421 178.169 268.95C177.509 266.848 177.179 264.115 177.179 260.857C177.179 256.127 177.839 252.659 179.269 250.557C180.259 248.98 181.579 248.244 183.338 248.244C184.438 248.244 185.318 248.665 186.198 249.401C186.638 248.455 187.078 247.824 187.518 247.404C187.958 246.983 188.508 246.773 189.168 246.773C189.828 246.773 190.268 246.983 190.708 247.404C191.037 247.824 191.257 248.455 191.257 249.296C191.257 250.031 191.147 250.557 190.818 250.872C190.598 251.187 190.268 251.398 189.938 251.398C189.608 251.398 189.278 251.292 189.058 250.977C188.838 250.662 188.728 250.347 188.728 249.716V249.401C188.728 249.19 188.728 249.085 188.728 248.98C188.728 248.665 188.728 248.455 188.618 248.35C188.508 248.244 188.398 248.139 188.178 248.139C187.958 248.139 187.738 248.244 187.408 248.56C187.188 248.875 186.968 249.296 186.748 249.926C188.398 252.238 189.278 255.917 189.278 261.172C189.278 265.692 188.618 269.055 187.188 271.157C186.088 272.733 184.878 273.574 183.338 273.574C183.118 273.574 182.788 273.574 182.458 273.574C182.238 273.574 181.689 273.574 180.809 273.574C179.709 273.574 178.939 273.784 178.499 274.1C178.059 274.415 177.839 274.73 177.839 275.151C177.839 275.466 177.949 275.676 178.169 275.887C178.499 276.202 179.049 276.307 179.819 276.307H183.888C185.978 276.307 187.408 276.832 188.398 277.778C189.388 278.829 189.828 280.301 189.828 282.403C189.828 284.715 189.168 286.502 187.958 287.763C186.748 289.024 184.988 289.76 182.788 289.76C180.589 289.76 178.829 289.235 177.619 288.184C176.409 287.133 175.859 285.976 175.859 284.715C175.859 283.874 176.079 283.139 176.409 282.403C176.739 281.667 177.289 281.037 178.059 280.406C177.509 279.986 177.069 279.565 176.739 278.935C176.409 278.409 176.299 277.778 176.299 277.043C176.299 275.781 176.629 274.835 177.179 274.1C177.839 273.574 178.939 273.154 180.479 272.839ZM178.609 280.931C178.169 281.457 177.839 281.982 177.509 282.403C177.179 282.823 177.179 283.454 177.179 283.979C177.179 284.925 177.729 285.871 178.719 286.712C179.709 287.553 181.139 287.973 183.008 287.973C184.878 287.973 186.418 287.448 187.628 286.502C188.508 285.661 188.948 284.82 188.948 283.664C188.948 282.823 188.728 282.298 188.178 281.877C187.518 281.352 186.198 281.142 184.108 281.142H183.008C181.359 281.247 179.819 281.142 178.609 280.931ZM184.438 251.082C184.438 250.136 184.328 249.611 184.108 249.296C183.888 248.98 183.558 248.875 183.118 248.875C182.678 248.875 182.458 249.085 182.128 249.401C181.908 249.716 181.798 250.347 181.798 251.187V270.211C181.798 271.367 181.908 272.103 182.238 272.628C182.458 272.944 182.788 273.154 183.118 273.154C183.448 273.154 183.778 273.049 183.998 272.733C184.218 272.418 184.328 271.893 184.328 271.157V251.082H184.438Z" fill="white"/>
<path d="M213.145 264.01V274.625C213.145 276.307 213.365 277.358 213.695 277.883C213.915 278.304 214.355 278.514 215.015 278.514C216.005 278.514 216.885 277.883 217.655 276.727C218.974 274.73 219.634 271.998 219.744 268.529C219.744 267.373 219.854 266.743 219.854 266.637C219.964 266.532 220.074 266.427 220.184 266.427C220.294 266.427 220.404 266.532 220.514 266.637C220.624 266.743 220.624 267.163 220.624 267.688C220.624 271.052 220.074 273.89 218.974 276.202C217.875 278.514 216.335 279.67 214.575 279.67C212.815 279.67 211.385 278.829 210.285 277.043C209.186 275.256 208.526 271.367 208.526 265.481V261.277C208.526 256.758 209.295 253.289 210.835 250.872C211.935 249.19 213.255 248.35 214.905 248.35C216.775 248.35 218.205 249.401 219.194 251.608C220.184 253.71 220.734 256.337 220.734 259.49V264.22H213.145V264.01ZM215.895 263.169V250.977C215.895 250.241 215.785 249.611 215.455 249.19C215.235 248.875 215.015 248.77 214.575 248.77C214.245 248.77 213.805 248.98 213.585 249.296C213.255 249.611 213.145 250.241 213.145 250.977V263.169H215.895Z" fill="white"/>
<path d="M239.872 249.296H238.772L238.662 249.19C238.662 249.085 238.552 248.98 238.552 248.875C238.552 248.77 238.662 248.665 238.772 248.56H244.602V250.872C245.262 249.821 245.812 249.19 246.471 248.77C247.021 248.35 247.791 248.139 248.671 248.139C249.771 248.139 250.651 248.455 251.091 249.085C251.751 249.926 252.081 251.187 252.081 252.869V278.409H252.961C253.071 278.409 253.181 278.409 253.181 278.514C253.291 278.619 253.291 278.619 253.291 278.724C253.291 278.829 253.291 278.935 253.181 278.935C253.071 279.04 253.071 279.04 252.961 279.04H246.801C246.691 279.04 246.691 279.04 246.581 278.935C246.471 278.829 246.471 278.829 246.471 278.724C246.471 278.619 246.471 278.514 246.581 278.514C246.691 278.409 246.691 278.409 246.801 278.409H247.351V251.713C247.351 251.082 247.241 250.767 247.131 250.557C247.021 250.347 246.801 250.241 246.581 250.241C246.141 250.241 245.702 250.557 245.372 251.082C244.932 251.923 244.602 253.289 244.602 255.076V278.409H245.262C245.482 278.514 245.482 278.619 245.482 278.724C245.482 278.829 245.372 278.934 245.262 279.04H238.772C238.552 278.934 238.552 278.829 238.552 278.724C238.552 278.619 238.662 278.514 238.772 278.409H239.872V249.296Z" fill="white"/>
<path d="M92.4881 297.222V301.006C92.4881 301.637 92.2681 302.162 91.8282 302.583C91.3882 303.003 90.8383 303.213 90.2883 303.213C89.8484 303.213 89.5184 303.108 89.1885 303.003C88.8585 302.793 88.6385 302.583 88.4185 302.162C88.1986 301.847 88.0886 301.426 88.0886 301.006V297.222H87.6486C87.5386 297.222 87.4287 297.222 87.4287 297.117C87.4287 297.117 87.3187 297.012 87.3187 296.907C87.3187 296.802 87.3187 296.802 87.4287 296.697C87.4287 296.697 87.5386 296.592 87.6486 296.592H89.2985C89.4084 296.592 89.5184 296.592 89.5184 296.697C89.5184 296.697 89.6284 296.802 89.6284 296.907C89.6284 297.012 89.6284 297.012 89.5184 297.117C89.5184 297.117 89.4084 297.222 89.2985 297.222H88.4185V301.006C88.4185 301.532 88.6385 301.952 88.9685 302.267C89.2985 302.583 89.7384 302.793 90.1784 302.793C90.5083 302.793 90.7283 302.688 91.0583 302.583C91.2782 302.478 91.4982 302.267 91.7182 301.952C91.9382 301.637 92.0482 301.321 92.0482 301.006V297.222H91.1682C91.0583 297.222 90.9483 297.222 90.9483 297.117C90.9483 297.117 90.8383 297.012 90.8383 296.907C90.8383 296.802 90.8383 296.802 90.9483 296.697C90.9483 296.697 91.0583 296.592 91.1682 296.592H92.9281C93.038 296.592 93.148 296.592 93.148 296.697C93.148 296.697 93.258 296.802 93.258 296.907C93.258 297.012 93.258 297.012 93.148 297.117C93.148 297.117 93.038 297.222 92.9281 297.222H92.4881Z" fill="white"/>
<path d="M95.5678 298.379V299.009C95.8977 298.694 96.2277 298.484 96.4477 298.379C96.6677 298.273 96.9976 298.168 97.3276 298.168C97.6576 298.168 97.9875 298.273 98.3175 298.379C98.5375 298.484 98.7574 298.694 98.8674 298.904C99.0874 299.114 99.0874 299.43 99.0874 299.64V302.478H99.5273C99.6373 302.478 99.7473 302.478 99.7473 302.583C99.7473 302.583 99.8573 302.688 99.8573 302.793C99.8573 302.898 99.8573 302.898 99.7473 303.003C99.7473 303.003 99.6373 303.108 99.5273 303.108H98.3175C98.2075 303.108 98.0975 303.108 98.0975 303.003C98.0975 303.003 97.9875 302.898 97.9875 302.793C97.9875 302.688 97.9875 302.688 98.0975 302.583C98.0975 302.583 98.2075 302.478 98.3175 302.478H98.7574V299.745C98.7574 299.43 98.6474 299.114 98.4275 298.904C98.2075 298.694 97.8775 298.589 97.4376 298.589C97.1076 298.589 96.8876 298.694 96.6677 298.799C96.4477 298.904 96.1177 299.219 95.6778 299.64V302.478H96.2277C96.3377 302.478 96.4477 302.478 96.4477 302.583C96.4477 302.583 96.5577 302.688 96.5577 302.793C96.5577 302.898 96.5577 302.898 96.4477 303.003C96.4477 303.003 96.3377 303.108 96.2277 303.108H94.6879C94.5779 303.108 94.4679 303.108 94.4679 303.003C94.4679 303.003 94.3579 302.898 94.3579 302.793C94.3579 302.688 94.3579 302.688 94.4679 302.583C94.4679 302.583 94.5779 302.478 94.6879 302.478H95.2378V298.799H94.7979C94.6879 298.799 94.5779 298.799 94.5779 298.694C94.5779 298.694 94.4679 298.589 94.4679 298.484C94.4679 298.379 94.4679 298.379 94.5779 298.273C94.5779 298.273 94.6879 298.168 94.7979 298.168H95.5678V298.379Z" fill="white"/>
<path d="M104.147 296.276V302.478H106.017C106.127 302.478 106.237 302.478 106.237 302.583C106.237 302.583 106.347 302.688 106.347 302.793C106.347 302.898 106.347 302.898 106.237 303.003C106.237 303.003 106.127 303.108 106.017 303.108H101.837C101.727 303.108 101.617 303.108 101.617 303.003C101.617 303.003 101.507 302.898 101.507 302.793C101.507 302.688 101.507 302.688 101.617 302.583C101.617 302.583 101.727 302.478 101.837 302.478H103.707V296.697H102.387C102.277 296.697 102.167 296.697 102.167 296.592C102.167 296.487 102.057 296.487 102.057 296.382C102.057 296.276 102.057 296.276 102.167 296.171C102.167 296.171 102.277 296.066 102.387 296.066H104.147V296.276Z" fill="white"/>
<path d="M113.276 300.796H108.546C108.656 301.321 108.876 301.847 109.316 302.162C109.756 302.478 110.306 302.688 110.856 302.688C111.186 302.688 111.516 302.583 111.956 302.478C112.286 302.372 112.616 302.267 112.836 302.057C112.946 301.952 112.946 301.952 113.056 301.952C113.166 301.952 113.166 301.952 113.166 302.057L113.276 302.162C113.276 302.267 113.276 302.267 113.166 302.372C112.946 302.583 112.726 302.688 112.176 302.898C111.736 303.003 111.296 303.108 110.746 303.108C109.976 303.108 109.316 302.898 108.766 302.372C108.216 301.847 107.996 301.216 107.996 300.586C107.996 299.955 108.216 299.43 108.766 298.904C109.316 298.484 109.866 298.168 110.636 298.168C111.406 298.168 112.066 298.379 112.506 298.904C113.056 299.43 113.276 300.06 113.276 300.796ZM112.836 300.27C112.726 299.745 112.506 299.43 112.066 299.114C111.626 298.799 111.186 298.694 110.636 298.694C110.086 298.694 109.646 298.799 109.206 299.114C108.766 299.43 108.546 299.85 108.436 300.27H112.836Z" fill="white"/>
<path d="M118.995 303.003V302.372C118.335 302.898 117.565 303.213 116.795 303.213C116.246 303.213 115.806 303.108 115.476 302.793C115.146 302.478 115.036 302.162 115.036 301.847C115.036 301.427 115.256 301.006 115.696 300.691C116.136 300.375 116.685 300.165 117.565 300.165C117.785 300.165 118.005 300.165 118.225 300.165C118.445 300.165 118.775 300.27 118.995 300.27V299.535C118.995 299.324 118.885 299.114 118.665 298.904C118.445 298.694 118.115 298.589 117.565 298.589C117.235 298.589 116.685 298.694 116.026 298.904C115.916 298.904 115.806 299.009 115.806 299.009C115.696 299.009 115.696 299.009 115.696 298.904C115.696 298.904 115.586 298.799 115.586 298.694C115.586 298.589 115.586 298.589 115.696 298.589C115.696 298.484 115.916 298.484 116.355 298.379C116.905 298.273 117.345 298.168 117.675 298.168C118.225 298.168 118.775 298.273 119.105 298.589C119.435 298.904 119.655 299.219 119.655 299.535V302.478H120.315C120.425 302.478 120.535 302.478 120.535 302.583C120.535 302.583 120.645 302.688 120.645 302.793C120.645 302.898 120.645 302.898 120.535 303.003C120.535 303.003 120.425 303.108 120.315 303.108H118.995V303.003ZM118.995 300.796C118.775 300.691 118.555 300.691 118.335 300.691C118.115 300.691 117.785 300.691 117.565 300.691C116.905 300.691 116.355 300.796 116.026 301.111C115.696 301.321 115.586 301.532 115.586 301.847C115.586 302.162 115.696 302.372 115.916 302.478C116.136 302.688 116.465 302.793 116.905 302.793C117.345 302.793 117.675 302.688 118.005 302.583C118.335 302.478 118.665 302.162 119.105 301.847V300.796H118.995Z" fill="white"/>
<path d="M125.924 298.694C125.924 298.589 125.924 298.484 126.034 298.484C126.034 298.484 126.144 298.379 126.254 298.379C126.364 298.379 126.364 298.379 126.474 298.484C126.474 298.484 126.584 298.589 126.584 298.694V299.43C126.584 299.535 126.584 299.64 126.474 299.64C126.474 299.64 126.364 299.745 126.254 299.745C126.144 299.745 126.144 299.745 126.144 299.64C126.144 299.64 126.034 299.535 126.034 299.43C126.034 299.219 125.924 299.009 125.704 298.904C125.375 298.694 125.045 298.589 124.495 298.589C123.945 298.589 123.615 298.694 123.285 298.904C123.065 299.009 122.955 299.219 122.955 299.43C122.955 299.64 123.065 299.85 123.395 299.955C123.615 300.06 123.945 300.165 124.385 300.165C125.045 300.27 125.485 300.27 125.704 300.375C126.034 300.481 126.364 300.691 126.474 300.901C126.694 301.111 126.694 301.321 126.694 301.637C126.694 302.057 126.474 302.372 126.144 302.688C125.814 303.003 125.155 303.108 124.495 303.108C123.725 303.108 123.175 302.898 122.735 302.583C122.735 302.688 122.735 302.793 122.735 302.793C122.735 302.793 122.735 302.898 122.625 302.898H122.515C122.405 302.898 122.405 302.898 122.295 302.793C122.295 302.793 122.185 302.688 122.185 302.583V301.637C122.185 301.532 122.185 301.427 122.295 301.427C122.295 301.427 122.405 301.321 122.515 301.321C122.625 301.321 122.625 301.321 122.735 301.427C122.735 301.427 122.845 301.532 122.845 301.637C122.845 301.847 122.845 301.952 122.955 302.057C123.065 302.267 123.285 302.372 123.615 302.478C123.945 302.583 124.275 302.688 124.605 302.688C125.265 302.688 125.704 302.583 125.924 302.372C126.254 302.162 126.364 301.952 126.364 301.637C126.364 301.321 126.254 301.111 125.924 301.006C125.595 300.796 125.155 300.691 124.605 300.691C124.055 300.586 123.615 300.586 123.395 300.481C123.175 300.375 122.955 300.27 122.845 300.06C122.735 299.85 122.625 299.64 122.625 299.43C122.625 299.009 122.845 298.694 123.175 298.484C123.615 298.273 124.055 298.168 124.605 298.168C125.045 298.168 125.595 298.379 125.924 298.694Z" fill="white"/>
<path d="M129.774 296.276V299.009C130.104 298.694 130.324 298.484 130.654 298.379C130.874 298.273 131.204 298.168 131.534 298.168C131.864 298.168 132.194 298.273 132.414 298.379C132.634 298.484 132.854 298.694 133.074 298.904C133.294 299.114 133.294 299.43 133.294 299.745V302.478H133.844C133.954 302.478 134.064 302.478 134.064 302.583C134.064 302.583 134.174 302.688 134.174 302.793C134.174 302.898 134.174 302.898 134.064 303.003C134.064 303.003 133.954 303.108 133.844 303.108H132.304C132.194 303.108 132.084 303.108 132.084 303.003C132.084 303.003 131.974 302.898 131.974 302.793C131.974 302.688 131.974 302.688 132.084 302.583C132.084 302.583 132.194 302.478 132.304 302.478H132.854V299.745C132.854 299.43 132.744 299.114 132.524 298.904C132.304 298.694 131.974 298.589 131.534 298.589C131.204 298.589 130.874 298.694 130.654 298.799C130.434 298.904 130.214 299.219 129.774 299.64V302.478H130.324C130.434 302.478 130.544 302.478 130.544 302.583C130.544 302.583 130.654 302.688 130.654 302.793C130.654 302.898 130.654 302.898 130.544 303.003C130.544 303.003 130.434 303.108 130.324 303.108H128.784C128.674 303.108 128.564 303.108 128.564 303.003C128.564 303.003 128.454 302.898 128.454 302.793C128.454 302.688 128.454 302.688 128.564 302.583C128.564 302.583 128.674 302.478 128.784 302.478H129.334V296.697H128.674C128.564 296.697 128.454 296.697 128.454 296.592C128.454 296.592 128.344 296.487 128.344 296.382C128.344 296.276 128.344 296.276 128.454 296.171C128.454 296.171 128.564 296.066 128.674 296.066H129.774V296.276Z" fill="white"/>
<path d="M144.952 303.003L142.753 298.904H142.643C142.533 298.904 142.423 298.904 142.423 298.799C142.423 298.799 142.313 298.694 142.313 298.589V298.484L142.423 298.379C142.423 298.379 142.533 298.379 142.643 298.379H143.963C144.073 298.379 144.183 298.379 144.183 298.484C144.183 298.484 144.293 298.589 144.293 298.694C144.293 298.799 144.293 298.799 144.183 298.904C144.183 298.904 144.073 299.009 143.963 299.009H143.303L145.172 302.688L147.042 299.009H146.492C146.382 299.009 146.272 299.009 146.272 298.904C146.272 298.904 146.162 298.799 146.162 298.694C146.162 298.589 146.162 298.589 146.272 298.484C146.272 298.484 146.382 298.379 146.492 298.379H147.812C147.922 298.379 148.032 298.379 148.032 298.484C148.032 298.484 148.142 298.589 148.142 298.694V298.799L148.032 298.904C148.032 298.904 147.922 298.904 147.702 298.904L144.732 304.685H145.392C145.502 304.685 145.612 304.685 145.612 304.79C145.612 304.79 145.722 304.895 145.722 305C145.722 305.105 145.722 305.105 145.612 305.21C145.612 305.21 145.502 305.315 145.392 305.315H142.753C142.643 305.315 142.533 305.315 142.533 305.21C142.533 305.21 142.423 305.105 142.423 305C142.423 304.895 142.423 304.895 142.533 304.79C142.533 304.79 142.643 304.685 142.753 304.685H144.183L144.952 303.003Z" fill="white"/>
<path d="M154.411 300.691C154.411 301.321 154.191 301.952 153.641 302.478C153.092 303.003 152.542 303.213 151.772 303.213C151.002 303.213 150.452 303.003 149.902 302.478C149.352 301.952 149.132 301.426 149.132 300.691C149.132 300.06 149.352 299.43 149.902 298.904C150.452 298.379 151.002 298.168 151.772 298.168C152.542 298.168 153.092 298.379 153.641 298.904C154.081 299.43 154.411 299.955 154.411 300.691ZM153.861 300.691C153.861 300.165 153.641 299.64 153.202 299.219C152.762 298.799 152.322 298.589 151.662 298.589C151.112 298.589 150.562 298.799 150.122 299.219C149.682 299.64 149.462 300.06 149.462 300.691C149.462 301.216 149.682 301.742 150.122 302.162C150.562 302.583 151.002 302.793 151.662 302.793C152.212 302.793 152.762 302.583 153.202 302.162C153.751 301.742 153.861 301.216 153.861 300.691Z" fill="white"/>
<path d="M160.241 303.003V302.267C159.581 302.793 158.921 303.108 158.151 303.108C157.711 303.108 157.381 303.003 157.161 302.793C156.831 302.478 156.721 302.162 156.721 301.742V298.904H156.061C155.951 298.904 155.841 298.904 155.841 298.799C155.841 298.799 155.731 298.694 155.731 298.589C155.731 298.484 155.731 298.484 155.841 298.379C155.841 298.379 155.951 298.273 156.061 298.273H157.161V301.637C157.161 301.952 157.271 302.162 157.491 302.372C157.711 302.583 157.931 302.688 158.261 302.688C159.031 302.688 159.691 302.372 160.351 301.637V298.799H159.471C159.361 298.799 159.251 298.799 159.251 298.694C159.251 298.694 159.141 298.589 159.141 298.484C159.141 298.379 159.141 298.379 159.251 298.273C159.251 298.273 159.361 298.168 159.471 298.168H160.791V302.372H161.231C161.341 302.372 161.451 302.372 161.451 302.478C161.451 302.478 161.561 302.583 161.561 302.688C161.561 302.793 161.561 302.793 161.451 302.898C161.451 302.898 161.341 303.003 161.231 303.003H160.241Z" fill="white"/>
<path d="M164.86 298.379V299.535C165.52 299.009 165.96 298.694 166.18 298.484C166.51 298.379 166.73 298.273 167.06 298.273C167.39 298.273 167.61 298.379 167.83 298.589C168.05 298.799 168.16 298.904 168.16 299.009C168.16 299.114 168.16 299.114 168.05 299.219C168.05 299.219 167.94 299.324 167.83 299.324H167.72C167.72 299.324 167.61 299.324 167.61 299.219C167.5 299.114 167.39 299.009 167.28 299.009C167.17 299.009 167.06 298.904 166.95 298.904C166.73 298.904 166.51 299.009 166.18 299.114C165.85 299.219 165.41 299.64 164.64 300.27V302.688H166.73C166.84 302.688 166.95 302.688 166.95 302.793C166.95 302.793 167.06 302.898 167.06 303.003C167.06 303.108 167.06 303.108 166.95 303.213C166.95 303.213 166.84 303.318 166.73 303.318H163.1C162.99 303.318 162.88 303.318 162.88 303.213L162.771 303.108C162.771 303.003 162.771 303.003 162.88 303.003C162.88 303.003 162.99 302.898 163.1 302.898H164.2V299.219H163.32C163.21 299.219 163.1 299.219 163.1 299.114C163.1 299.114 162.99 299.009 162.99 298.904C162.99 298.799 162.99 298.799 163.1 298.694C163.1 298.694 163.21 298.589 163.32 298.589H164.86V298.379Z" fill="white"/>
<path d="M179.379 298.379V302.583H181.249C181.359 302.583 181.469 302.583 181.469 302.688C181.469 302.688 181.578 302.793 181.578 302.898C181.578 303.003 181.578 303.003 181.469 303.108C181.469 303.108 181.359 303.213 181.249 303.213H177.069C176.959 303.213 176.849 303.213 176.849 303.108C176.849 303.108 176.739 303.003 176.739 302.898C176.739 302.793 176.739 302.793 176.849 302.688C176.849 302.688 176.959 302.583 177.069 302.583H178.939V298.904H177.619C177.509 298.904 177.399 298.904 177.399 298.799C177.399 298.799 177.289 298.694 177.289 298.589C177.289 298.484 177.289 298.484 177.399 298.379C177.399 298.379 177.509 298.273 177.619 298.273H179.379V298.379ZM179.379 296.066V297.222H178.719V296.066H179.379Z" fill="white"/>
<path d="M183.778 298.379V298.799C184.218 298.379 184.548 298.168 184.988 298.168C185.208 298.168 185.428 298.273 185.648 298.379C185.868 298.484 185.978 298.694 186.088 298.904C186.308 298.694 186.528 298.484 186.748 298.379C186.968 298.273 187.188 298.168 187.408 298.168C187.738 298.168 188.068 298.273 188.178 298.484C188.398 298.799 188.618 299.009 188.618 299.324V302.478H189.058C189.168 302.478 189.278 302.478 189.278 302.583C189.278 302.583 189.388 302.688 189.388 302.793C189.388 302.898 189.388 302.898 189.278 303.003C189.278 303.003 189.168 303.108 189.058 303.108H188.178V299.535C188.178 299.324 188.068 299.114 187.958 299.009C187.848 298.904 187.628 298.799 187.408 298.799C187.188 298.799 187.078 298.904 186.858 299.009C186.638 299.114 186.418 299.324 186.198 299.745V302.688H186.638C186.748 302.688 186.858 302.688 186.858 302.793C186.858 302.793 186.968 302.898 186.968 303.003C186.968 303.108 186.968 303.108 186.858 303.213C186.858 303.213 186.748 303.318 186.638 303.318H185.758V299.85C185.758 299.64 185.648 299.43 185.538 299.219C185.428 299.114 185.208 299.009 185.098 299.009C184.878 299.009 184.768 299.009 184.548 299.114C184.328 299.219 184.108 299.535 183.888 299.85V302.793H184.328C184.438 302.793 184.548 302.793 184.548 302.898C184.548 302.898 184.658 303.003 184.658 303.108C184.658 303.213 184.658 303.213 184.548 303.318C184.548 303.318 184.438 303.423 184.328 303.423H183.118C183.008 303.423 182.898 303.423 182.898 303.318C182.898 303.318 182.788 303.213 182.788 303.108C182.788 303.003 182.788 303.003 182.898 302.898C182.898 302.898 183.008 302.793 183.118 302.793H183.558V299.114H183.118C183.008 299.114 182.898 299.114 182.898 299.009C182.898 299.009 182.788 298.904 182.788 298.799C182.788 298.694 182.788 298.694 182.898 298.589C182.898 298.589 183.008 298.484 183.118 298.484H183.778V298.379Z" fill="white"/>
<path d="M194.117 303.003V302.372C193.457 302.898 192.687 303.213 191.917 303.213C191.367 303.213 190.927 303.108 190.597 302.793C190.268 302.478 190.158 302.162 190.158 301.847C190.158 301.427 190.378 301.006 190.817 300.691C191.257 300.375 191.807 300.165 192.687 300.165C192.907 300.165 193.127 300.165 193.347 300.165C193.567 300.165 193.897 300.27 194.117 300.27V299.535C194.117 299.324 194.007 299.114 193.787 298.904C193.567 298.694 193.237 298.589 192.687 298.589C192.357 298.589 191.807 298.694 191.147 298.904C191.037 298.904 190.927 299.009 190.927 299.009C190.817 299.009 190.817 299.009 190.817 298.904C190.817 298.904 190.707 298.799 190.707 298.694C190.707 298.589 190.707 298.589 190.817 298.589C190.817 298.484 191.037 298.484 191.477 298.379C192.027 298.273 192.467 298.168 192.797 298.168C193.347 298.168 193.897 298.273 194.227 298.589C194.557 298.904 194.777 299.219 194.777 299.535V302.478H195.437C195.547 302.478 195.657 302.478 195.657 302.583C195.657 302.583 195.767 302.688 195.767 302.793C195.767 302.898 195.767 302.898 195.657 303.003C195.657 303.003 195.547 303.108 195.437 303.108H194.117V303.003ZM194.117 300.796C193.897 300.691 193.677 300.691 193.457 300.691C193.237 300.691 192.907 300.691 192.687 300.691C192.027 300.691 191.477 300.796 191.147 301.111C190.817 301.321 190.707 301.532 190.707 301.847C190.707 302.162 190.817 302.372 191.037 302.478C191.257 302.688 191.587 302.793 192.027 302.793C192.467 302.793 192.797 302.688 193.127 302.583C193.457 302.478 193.787 302.162 194.227 301.847V300.796H194.117Z" fill="white"/>
<path d="M201.156 299.219V298.379H202.256C202.366 298.379 202.476 298.379 202.476 298.484C202.476 298.484 202.586 298.589 202.586 298.694C202.586 298.799 202.586 298.799 202.476 298.904C202.476 298.904 202.366 299.009 202.256 299.009H201.596V303.423C201.596 303.739 201.486 303.949 201.376 304.264C201.266 304.369 201.156 304.58 200.936 304.79C200.716 305 200.496 305.105 200.386 305.105C200.166 305.21 199.946 305.21 199.727 305.21H198.407C198.297 305.21 198.187 305.21 198.187 305.105C198.187 305.105 198.077 305 198.077 304.895C198.077 304.79 198.077 304.79 198.187 304.685C198.187 304.685 198.297 304.58 198.407 304.58H199.727C199.946 304.58 200.276 304.474 200.496 304.369C200.716 304.264 200.936 304.054 201.046 303.739C201.156 303.634 201.156 303.423 201.156 303.213V301.847C200.606 302.478 200.056 302.793 199.177 302.793C198.517 302.793 197.967 302.583 197.527 302.162C197.087 301.742 196.867 301.111 196.867 300.481C196.867 299.85 197.087 299.324 197.527 298.799C197.967 298.379 198.517 298.168 199.177 298.168C200.056 298.168 200.716 298.484 201.156 299.219ZM201.156 300.481C201.156 299.955 200.936 299.535 200.606 299.114C200.276 298.799 199.727 298.589 199.287 298.589C198.737 298.589 198.297 298.799 197.967 299.114C197.637 299.43 197.417 299.955 197.417 300.481C197.417 301.006 197.637 301.427 197.967 301.847C198.297 302.162 198.737 302.372 199.287 302.372C199.836 302.372 200.276 302.162 200.606 301.847C201.046 301.532 201.156 301.006 201.156 300.481Z" fill="white"/>
<path d="M206.766 298.379V302.583H208.636C208.746 302.583 208.856 302.583 208.856 302.688C208.856 302.688 208.966 302.793 208.966 302.898C208.966 303.003 208.966 303.003 208.856 303.108C208.856 303.108 208.746 303.213 208.636 303.213H204.456C204.346 303.213 204.236 303.213 204.236 303.108C204.236 303.108 204.126 303.003 204.126 302.898C204.126 302.793 204.126 302.793 204.236 302.688C204.236 302.688 204.346 302.583 204.456 302.583H206.326V298.904H205.006C204.896 298.904 204.786 298.904 204.786 298.799C204.786 298.799 204.676 298.694 204.676 298.589C204.676 298.484 204.676 298.484 204.786 298.379C204.786 298.379 204.896 298.273 205.006 298.273H206.766V298.379ZM206.656 296.066V297.222H205.996V296.066H206.656Z" fill="white"/>
<path d="M211.825 298.379V299.009C212.155 298.694 212.485 298.484 212.705 298.379C212.925 298.273 213.255 298.168 213.585 298.168C213.915 298.168 214.245 298.273 214.575 298.379C214.795 298.484 215.015 298.694 215.125 298.904C215.345 299.114 215.345 299.43 215.345 299.64V302.478H215.785C215.895 302.478 216.005 302.478 216.005 302.583C216.005 302.583 216.115 302.688 216.115 302.793C216.115 302.898 216.115 302.898 216.005 303.003C216.005 303.003 215.895 303.108 215.785 303.108H214.575C214.465 303.108 214.355 303.108 214.355 303.003C214.355 303.003 214.245 302.898 214.245 302.793C214.245 302.688 214.245 302.688 214.355 302.583C214.355 302.583 214.465 302.478 214.575 302.478H215.015V299.745C215.015 299.43 214.905 299.114 214.685 298.904C214.465 298.694 214.135 298.589 213.695 298.589C213.365 298.589 213.145 298.694 212.925 298.799C212.705 298.904 212.375 299.219 211.935 299.64V302.478H212.485C212.595 302.478 212.705 302.478 212.705 302.583C212.705 302.583 212.815 302.688 212.815 302.793C212.815 302.898 212.815 302.898 212.705 303.003C212.705 303.003 212.595 303.108 212.485 303.108H210.945C210.835 303.108 210.725 303.108 210.725 303.003C210.725 303.003 210.615 302.898 210.615 302.793C210.615 302.688 210.615 302.688 210.725 302.583C210.725 302.583 210.835 302.478 210.945 302.478H211.495V298.799H211.055C210.945 298.799 210.835 298.799 210.835 298.694C210.835 298.694 210.725 298.589 210.725 298.484C210.725 298.379 210.725 298.379 210.835 298.273C210.835 298.273 210.945 298.168 211.055 298.168H211.825V298.379Z" fill="white"/>
<path d="M221.504 303.003V302.372C220.844 302.898 220.074 303.213 219.304 303.213C218.754 303.213 218.315 303.108 217.985 302.793C217.655 302.478 217.545 302.162 217.545 301.847C217.545 301.427 217.765 301.006 218.205 300.691C218.644 300.375 219.194 300.165 220.074 300.165C220.294 300.165 220.514 300.165 220.734 300.165C220.954 300.165 221.284 300.27 221.504 300.27V299.535C221.504 299.324 221.394 299.114 221.174 298.904C220.954 298.694 220.624 298.589 220.074 298.589C219.744 298.589 219.194 298.694 218.535 298.904C218.425 298.904 218.315 299.009 218.315 299.009C218.205 299.009 218.205 299.009 218.205 298.904C218.205 298.904 218.095 298.799 218.095 298.694C218.095 298.589 218.095 298.589 218.205 298.589C218.205 298.484 218.425 298.484 218.864 298.379C219.414 298.273 219.854 298.168 220.184 298.168C220.734 298.168 221.284 298.273 221.614 298.589C221.944 298.904 222.164 299.219 222.164 299.535V302.478H222.824C222.934 302.478 223.044 302.478 223.044 302.583C223.044 302.583 223.154 302.688 223.154 302.793C223.154 302.898 223.154 302.898 223.044 303.003C223.044 303.003 222.934 303.108 222.824 303.108H221.504V303.003ZM221.504 300.796C221.284 300.691 221.064 300.691 220.844 300.691C220.624 300.691 220.294 300.691 220.074 300.691C219.414 300.691 218.864 300.796 218.535 301.111C218.205 301.321 218.095 301.532 218.095 301.847C218.095 302.162 218.205 302.372 218.425 302.478C218.644 302.688 218.974 302.793 219.414 302.793C219.854 302.793 220.184 302.688 220.514 302.583C220.844 302.478 221.174 302.162 221.614 301.847V300.796H221.504Z" fill="white"/>
<path d="M226.014 298.379H228.543C228.653 298.379 228.763 298.379 228.763 298.484C228.763 298.484 228.873 298.589 228.873 298.694C228.873 298.799 228.873 298.799 228.763 298.904C228.763 298.904 228.653 299.009 228.543 299.009H226.014V301.952C226.014 302.162 226.124 302.478 226.344 302.583C226.564 302.793 226.894 302.793 227.334 302.793C227.664 302.793 227.993 302.793 228.323 302.688C228.653 302.583 228.983 302.478 229.203 302.372C229.313 302.372 229.313 302.267 229.423 302.267C229.533 302.267 229.533 302.267 229.533 302.372L229.643 302.478C229.643 302.583 229.643 302.583 229.533 302.583C229.423 302.688 229.093 302.793 228.653 303.003C228.213 303.108 227.774 303.213 227.334 303.213C226.784 303.213 226.344 303.108 226.014 302.898C225.684 302.688 225.574 302.372 225.574 301.952V299.009H224.694C224.584 299.009 224.474 299.009 224.474 298.904C224.474 298.904 224.364 298.799 224.364 298.694C224.364 298.589 224.364 298.589 224.474 298.484C224.474 298.484 224.584 298.379 224.694 298.379H225.574V297.012C225.574 296.907 225.574 296.802 225.684 296.802C225.684 296.802 225.794 296.697 225.904 296.697C226.014 296.697 226.014 296.697 226.124 296.802C226.124 296.802 226.234 296.907 226.234 297.012V298.379H226.014Z" fill="white"/>
<path d="M234.043 298.379V302.583H235.913C236.023 302.583 236.133 302.583 236.133 302.688C236.133 302.688 236.243 302.793 236.243 302.898C236.243 303.003 236.243 303.003 236.133 303.108C236.133 303.108 236.023 303.213 235.913 303.213H231.733C231.623 303.213 231.513 303.213 231.513 303.108C231.513 303.108 231.403 303.003 231.403 302.898C231.403 302.793 231.403 302.793 231.513 302.688C231.513 302.688 231.623 302.583 231.733 302.583H233.603V298.904H232.283C232.173 298.904 232.063 298.904 232.063 298.799C232.063 298.799 231.953 298.694 231.953 298.589C231.953 298.484 231.953 298.484 232.063 298.379C232.063 298.379 232.173 298.273 232.283 298.273H234.043V298.379ZM234.043 296.066V297.222H233.383V296.066H234.043Z" fill="white"/>
<path d="M243.282 300.691C243.282 301.321 243.062 301.952 242.512 302.478C241.962 303.003 241.412 303.213 240.642 303.213C239.872 303.213 239.322 303.003 238.772 302.478C238.222 301.952 238.002 301.426 238.002 300.691C238.002 300.06 238.222 299.43 238.772 298.904C239.322 298.379 239.872 298.168 240.642 298.168C241.412 298.168 241.962 298.379 242.512 298.904C242.952 299.43 243.282 299.955 243.282 300.691ZM242.732 300.691C242.732 300.165 242.512 299.64 242.072 299.219C241.632 298.799 241.192 298.589 240.532 298.589C239.982 298.589 239.432 298.799 238.992 299.219C238.552 299.64 238.332 300.06 238.332 300.691C238.332 301.216 238.552 301.742 238.992 302.162C239.432 302.583 239.872 302.793 240.532 302.793C241.082 302.793 241.632 302.583 242.072 302.162C242.512 301.742 242.732 301.216 242.732 300.691Z" fill="white"/>
<path d="M245.922 298.379V299.009C246.251 298.694 246.581 298.484 246.801 298.379C247.021 298.273 247.351 298.168 247.681 298.168C248.011 298.168 248.341 298.273 248.671 298.379C248.891 298.484 249.111 298.694 249.221 298.904C249.441 299.114 249.441 299.43 249.441 299.64V302.478H249.881C249.991 302.478 250.101 302.478 250.101 302.583C250.101 302.583 250.211 302.688 250.211 302.793C250.211 302.898 250.211 302.898 250.101 303.003C250.101 303.003 249.991 303.108 249.881 303.108H248.671C248.561 303.108 248.451 303.108 248.451 303.003C248.451 303.003 248.341 302.898 248.341 302.793C248.341 302.688 248.341 302.688 248.451 302.583C248.451 302.583 248.561 302.478 248.671 302.478H249.111V299.745C249.111 299.43 249.001 299.114 248.781 298.904C248.561 298.694 248.231 298.589 247.791 298.589C247.461 298.589 247.241 298.694 247.021 298.799C246.801 298.904 246.471 299.219 246.032 299.64V302.478H246.581C246.691 302.478 246.801 302.478 246.801 302.583C246.801 302.583 246.911 302.688 246.911 302.793C246.911 302.898 246.911 302.898 246.801 303.003C246.801 303.003 246.691 303.108 246.581 303.108H245.042C244.932 303.108 244.822 303.108 244.822 303.003C244.822 303.003 244.712 302.898 244.712 302.793C244.712 302.688 244.712 302.688 244.822 302.583C244.822 302.583 244.932 302.478 245.042 302.478H245.592V298.799H245.152C245.042 298.799 244.932 298.799 244.932 298.694C244.932 298.694 244.822 298.589 244.822 298.484C244.822 298.379 244.822 298.379 244.932 298.273C244.932 298.273 245.042 298.168 245.152 298.168H245.922V298.379Z" fill="white"/>
</g>
<defs>
<clipPath id="clip0_1_47">
<rect width="185" height="276" fill="white" transform="translate(75 29)"/>
</clipPath>
</defs>
</svg>
